<svg width="1600" height="1000" viewBox="0 0 1600 1000" fill="none" xmlns="http://www.w3.org/2000/svg">
  <rect width="1600" height="1000" fill="#F8F9FF"/>
  <rect x="64" y="64" width="1472" height="872" rx="36" fill="#FFFFFF" stroke="#C6C6CD"/>
  <text x="120" y="154" fill="#855300" font-family="Inter, system-ui, sans-serif" font-size="28" font-weight="700" letter-spacing="4">DESIGN SHOWCASE GALLERY</text>
  <text x="120" y="266" fill="#0B1C30" font-family="Georgia, serif" font-size="94" font-weight="700">A public record</text>
  <text x="120" y="360" fill="#0B1C30" font-family="Georgia, serif" font-size="94" font-weight="700">of the design</text>
  <text x="120" y="454" fill="#0B1C30" font-family="Georgia, serif" font-size="94" font-weight="700">journey.</text>
  <text x="120" y="538" fill="#45464D" font-family="Inter, system-ui, sans-serif" font-size="32">Compact previews, honest framing, and direct links back to the Figma source.</text>
  <rect x="120" y="610" width="360" height="226" rx="28" fill="#0B1C30"/>
  <rect x="168" y="660" width="264" height="126" rx="22" fill="#101A2B"/>
  <rect x="568" y="202" width="372" height="272" rx="30" fill="#F1F4FB"/>
  <rect x="616" y="250" width="276" height="120" rx="22" fill="#FFFFFF"/>
  <rect x="616" y="402" width="196" height="16" rx="8" fill="#855300"/>
  <rect x="988" y="202" width="428" height="332" rx="30" fill="#0B1C30"/>
  <rect x="1036" y="254" width="332" height="148" rx="22" fill="#101A2B"/>
  <rect x="1036" y="440" width="206" height="16" rx="8" fill="#D89A35"/>
  <rect x="568" y="548" width="372" height="288" rx="30" fill="#FFFFFF" stroke="#C6C6CD"/>
  <rect x="616" y="598" width="276" height="146" rx="22" fill="#F6E8D2"/>
  <rect x="988" y="582" width="428" height="254" rx="30" fill="#F1F4FB"/>
  <rect x="1036" y="634" width="332" height="110" rx="22" fill="#FFFFFF"/>
  <rect x="1036" y="776" width="180" height="16" rx="8" fill="#855300"/>
  <circle cx="1368" cy="154" r="28" fill="#D89A35"/>
  <circle cx="1320" cy="154" r="12" fill="#0B1C30"/>
</svg>
