<svg width="1600" height="1000" viewBox="0 0 1600 1000" fill="none" xmlns="http://www.w3.org/2000/svg">
  <rect width="1600" height="1000" fill="#F8F9FF"/>
  <rect x="64" y="64" width="1472" height="872" rx="36" fill="#FFFFFF" stroke="#C6C6CD"/>
  <rect x="120" y="120" width="620" height="760" rx="28" fill="#FFFFFF"/>
  <text x="120" y="172" fill="#855300" font-family="Inter, system-ui, sans-serif" font-size="28" font-weight="700" letter-spacing="4">HOME DIRECTION</text>
  <text x="120" y="290" fill="#0B1C30" font-family="Georgia, serif" font-size="106" font-weight="700">Engineering</text>
  <text x="120" y="400" fill="#0B1C30" font-family="Georgia, serif" font-size="106" font-weight="700">precision with</text>
  <text x="120" y="510" fill="#0B1C30" font-family="Georgia, serif" font-size="106" font-weight="700">design-first</text>
  <text x="120" y="620" fill="#0B1C30" font-family="Georgia, serif" font-size="106" font-weight="700">spirit.</text>
  <text x="120" y="706" fill="#45464D" font-family="Inter, system-ui, sans-serif" font-size="34">A homepage built around proof, rhythm, and measured confidence.</text>
  <rect x="120" y="780" width="198" height="64" rx="32" fill="#0B1C30"/>
  <text x="166" y="821" fill="#FFF9F0" font-family="Inter, system-ui, sans-serif" font-size="24" font-weight="700">CASE STUDIES</text>
  <rect x="342" y="780" width="188" height="64" rx="32" fill="#F6E8D2"/>
  <text x="390" y="821" fill="#6C4300" font-family="Inter, system-ui, sans-serif" font-size="24" font-weight="700">WRITING</text>
  <rect x="820" y="140" width="640" height="716" rx="34" fill="#0B1C30"/>
  <rect x="868" y="196" width="544" height="164" rx="24" fill="#101A2B"/>
  <rect x="908" y="234" width="182" height="18" rx="9" fill="#D89A35"/>
  <rect x="908" y="274" width="452" height="18" rx="9" fill="#2B3A52"/>
  <rect x="908" y="312" width="390" height="18" rx="9" fill="#2B3A52"/>
  <rect x="868" y="396" width="262" height="196" rx="24" fill="#1B2940"/>
  <rect x="1150" y="396" width="262" height="196" rx="24" fill="#142033"/>
  <rect x="868" y="620" width="544" height="188" rx="28" fill="#F4F7FB"/>
  <rect x="908" y="660" width="204" height="18" rx="9" fill="#855300"/>
  <rect x="908" y="702" width="378" height="18" rx="9" fill="#6B7280"/>
  <rect x="908" y="740" width="448" height="18" rx="9" fill="#C6C6CD"/>
  <circle cx="1268" cy="506" r="76" fill="#D89A35" fill-opacity="0.18"/>
  <path d="M1208 526C1242 476 1282 450 1354 446" stroke="#D89A35" stroke-width="8" stroke-linecap="round"/>
  <path d="M1216 314H1382" stroke="#D89A35" stroke-width="4" stroke-linecap="round" stroke-dasharray="8 14"/>
</svg>
