<svg width="1600" height="1000" viewBox="0 0 1600 1000" fill="none" xmlns="http://www.w3.org/2000/svg">
  <rect width="1600" height="1000" fill="#F8F9FF"/>
  <rect x="56" y="56" width="1488" height="888" rx="36" fill="#FFFFFF" stroke="#C6C6CD"/>
  <text x="112" y="160" fill="#855300" font-family="Inter, system-ui, sans-serif" font-size="28" font-weight="700" letter-spacing="4">SELECTED WORK ARCHIVE</text>
  <text x="112" y="262" fill="#0B1C30" font-family="Georgia, serif" font-size="90" font-weight="700">Projects with depth,</text>
  <text x="112" y="354" fill="#0B1C30" font-family="Georgia, serif" font-size="90" font-weight="700">browsable at speed.</text>
  <text x="112" y="420" fill="#45464D" font-family="Inter, system-ui, sans-serif" font-size="32">A system for scanning product work, open source, and long-form case studies.</text>
  <rect x="112" y="484" width="640" height="344" rx="32" fill="#0B1C30"/>
  <rect x="152" y="526" width="248" height="124" rx="22" fill="#101A2B"/>
  <rect x="152" y="672" width="248" height="116" rx="22" fill="#101A2B"/>
  <rect x="424" y="526" width="288" height="262" rx="26" fill="#F4F7FB"/>
  <rect x="464" y="570" width="132" height="16" rx="8" fill="#855300"/>
  <rect x="464" y="610" width="198" height="16" rx="8" fill="#6B7280"/>
  <rect x="464" y="646" width="210" height="16" rx="8" fill="#C6C6CD"/>
  <rect x="792" y="176" width="648" height="652" rx="32" fill="#F1F4FB"/>
  <rect x="836" y="220" width="260" height="256" rx="24" fill="#FFFFFF" stroke="#C6C6CD"/>
  <rect x="1136" y="220" width="260" height="256" rx="24" fill="#FFFFFF" stroke="#D89A35" stroke-width="3"/>
  <rect x="836" y="516" width="260" height="256" rx="24" fill="#FFFFFF" stroke="#C6C6CD"/>
  <rect x="1136" y="516" width="260" height="256" rx="24" fill="#FFFFFF" stroke="#C6C6CD"/>
  <rect x="868" y="252" width="196" height="118" rx="18" fill="#E5EEFF"/>
  <rect x="1168" y="252" width="196" height="118" rx="18" fill="#F6E8D2"/>
  <rect x="868" y="404" width="118" height="12" rx="6" fill="#855300"/>
  <rect x="868" y="434" width="168" height="12" rx="6" fill="#6B7280"/>
  <rect x="1168" y="404" width="130" height="12" rx="6" fill="#855300"/>
  <rect x="1168" y="434" width="178" height="12" rx="6" fill="#6B7280"/>
  <rect x="868" y="548" width="196" height="118" rx="18" fill="#F6E8D2"/>
  <rect x="1168" y="548" width="196" height="118" rx="18" fill="#E5EEFF"/>
  <rect x="868" y="700" width="120" height="12" rx="6" fill="#855300"/>
  <rect x="868" y="730" width="166" height="12" rx="6" fill="#6B7280"/>
  <rect x="1168" y="700" width="144" height="12" rx="6" fill="#855300"/>
  <rect x="1168" y="730" width="172" height="12" rx="6" fill="#6B7280"/>
  <path d="M180 590H364" stroke="#D89A35" stroke-width="4" stroke-linecap="round" stroke-dasharray="6 12"/>
  <circle cx="648" cy="708" r="56" fill="#D89A35" fill-opacity="0.12"/>
</svg>
