<svg width="1600" height="1000" viewBox="0 0 1600 1000" fill="none" xmlns="http://www.w3.org/2000/svg">
  <rect width="1600" height="1000" fill="#F8F9FF"/>
  <rect x="56" y="56" width="1488" height="888" rx="36" fill="#FFFFFF" stroke="#C6C6CD"/>
  <rect x="112" y="112" width="1376" height="88" rx="24" fill="#F1F4FB"/>
  <rect x="152" y="146" width="186" height="16" rx="8" fill="#855300"/>
  <rect x="112" y="248" width="780" height="624" rx="32" fill="#FFFFFF"/>
  <text x="112" y="234" fill="#855300" font-family="Inter, system-ui, sans-serif" font-size="28" font-weight="700" letter-spacing="4">WRITING JOURNAL SURFACE</text>
  <text x="152" y="360" fill="#0B1C30" font-family="Georgia, serif" font-size="88" font-weight="700">Notes from</text>
  <text x="152" y="448" fill="#0B1C30" font-family="Georgia, serif" font-size="88" font-weight="700">building systems</text>
  <text x="152" y="536" fill="#0B1C30" font-family="Georgia, serif" font-size="88" font-weight="700">and taste.</text>
  <rect x="152" y="588" width="548" height="20" rx="10" fill="#C6C6CD"/>
  <rect x="152" y="628" width="602" height="20" rx="10" fill="#C6C6CD"/>
  <rect x="152" y="668" width="574" height="20" rx="10" fill="#C6C6CD"/>
  <rect x="152" y="726" width="420" height="112" rx="24" fill="#0B1C30"/>
  <rect x="940" y="248" width="492" height="624" rx="32" fill="#F1F4FB"/>
  <rect x="988" y="296" width="396" height="198" rx="24" fill="#101A2B"/>
  <rect x="1032" y="342" width="220" height="18" rx="9" fill="#D89A35"/>
  <rect x="1032" y="384" width="286" height="18" rx="9" fill="#F4F7FB"/>
  <rect x="1032" y="426" width="252" height="18" rx="9" fill="#2B3A52"/>
  <rect x="988" y="538" width="396" height="286" rx="24" fill="#FFFFFF"/>
  <rect x="1032" y="582" width="180" height="16" rx="8" fill="#855300"/>
  <rect x="1032" y="620" width="308" height="16" rx="8" fill="#6B7280"/>
  <rect x="1032" y="658" width="280" height="16" rx="8" fill="#6B7280"/>
  <rect x="1032" y="710" width="220" height="72" rx="18" fill="#F6E8D2"/>
  <text x="222" y="794" fill="#FFF9F0" font-family="Inter, system-ui, sans-serif" font-size="24" font-weight="700">CODE + LIVE DEMOS</text>
</svg>
